# xmcd CD database file
#
# Track frame offsets:
#	150
#	18397
#	35879
#	71384
#	105749
#	141312
#	166474
#	194280
#	239857
#	265013
#
# Disc length: 4118 seconds
#
# Revision: 1
# Processed by: cddbd v1.4PL0 Copyright (c) Steve Scherf et al.
# Submitted via: CDex 1.50
#
DISCID=9310140a
DTITLE=Enrico Crivellaro - The Enrico Crivellaro Trio
DYEAR=2003
DGENRE=Blues
TTITLE0=Wishy Washy
TTITLE1=Cocaine
TTITLE2=Mell of Hess
TTITLE3=I'm Walkin'
TTITLE4=Hot Bossa
TTITLE5=Theme from Starsky and Hutch
TTITLE6=Struttin'
TTITLE7=A Little 3/4 for God and Co.
TTITLE8=Hot Barbecue
TTITLE9=Huckleboogie
EXTD=YEAR: 2003
EXTT0=
EXTT1=
EXTT2=
EXTT3=
EXTT4=
EXTT5=
EXTT6=
EXTT7=
EXTT8=
EXTT9=
PLAYORDER=
